<svg width="74" height="80" viewBox="0 0 74 80" xmlns="http://www.w3.org/2000/svg"><title>Shape</title><path d="M73.618 18.86c0-.304-.068-.608-.203-.895a1.956 1.956 0 0 0-1.368-1.08L37.653.203a2.04 2.04 0 0 0-1.773 0L1.148 17.037A2.033 2.033 0 0 0 0 18.793v42.33a2.01 2.01 0 0 0 1.148 1.823L35.88 79.78c.017 0 .017 0 .034.017.05.017.101.034.152.068.017 0 .034.017.067.017l.152.05c.017 0 .034.017.051.017.05.017.118.017.169.034h.05c.068 0 .152.017.22.017s.152 0 .22-.017h.05a.6.6 0 0 0 .169-.034c.017 0 .034-.017.05-.017l.153-.05c.017 0 .033-.017.067-.017.05-.017.101-.034.152-.068.017 0 .017 0 .034-.017l34.833-16.884a2.042 2.042 0 0 0 1.148-1.824V18.911c-.033-.017-.033-.034-.033-.05zM36.758 4.272l30.123 14.605-11.094 5.386L25.665 9.658l11.093-5.386zm0 29.21L6.636 18.877l14.386-6.973 30.122 14.605-14.386 6.973zM4.052 22.136l30.68 14.875v37.704L4.052 59.84V22.136zm34.732 52.58V37.01l14.403-6.99v9.86c0 1.115.912 2.027 2.026 2.027a2.032 2.032 0 0 0 2.026-2.026V28.046l12.326-5.978v37.704l-30.78 14.943z" fill="#FFF" opacity=".8"/></svg>