<svg width="80" height="80" viewBox="0 0 80 80" xmlns="http://www.w3.org/2000/svg"><title>Combined Shape</title><path d="M80 36.65c0 .442-.176.866-.488 1.178L40.673 76.667h15.993a1.667 1.667 0 0 1 0 3.333H23.333a1.667 1.667 0 0 1 0-3.333h1.704L3.153 54.782A10.724 10.724 0 0 1 0 47.145c0-2.892 1.12-5.605 3.153-7.638l16.844-16.844c-7.075-2.083-11.159-5.153-11.3-8.566-.039-.945.214-2.371 1.642-3.79 3.564-3.538 13.05-5.477 24.166-4.939.879.043 1.75.1 2.614.173L42.172.488A1.666 1.666 0 0 1 43.35 0h25.848C75.154 0 80 4.845 80 10.801V36.65zM12.028 13.96c.056 1.351 2.956 4.043 10.684 5.988L33.978 8.682c-11.362-.495-18.992 1.709-21.29 3.99-.685.681-.666 1.138-.66 1.288zM36.39 64.822a1.667 1.667 0 0 1 2.357 2.357l-3.535 3.536c-.65.65-1.504.975-2.357.975a3.323 3.323 0 0 1-2.358-.975l-7.07-7.071a1.667 1.667 0 0 1 2.356-2.357l7.071 7.071 3.536-3.536zm-15.06-7.988l.683.682a1.667 1.667 0 0 1-2.358 2.357l-.682-.683a1.667 1.667 0 0 1 2.358-2.356zm27.296-5.591l1.85 1.85a1.667 1.667 0 0 1-2.357 2.357l-1.76-1.76c-1.836 1.546-4.07 2.596-6.181 2.596a5.736 5.736 0 0 1-1.738-.26 1.667 1.667 0 1 1 1.007-3.178c1.13.358 2.95-.259 4.552-1.518l-7.37-7.37-.384.213c-3.661 1.998-7.368 1.97-9.915-.075-2.258-1.813-3.097-4.885-2.19-8.018.317-1.095.881-2.1 1.607-3.003L24.55 31.88a1.667 1.667 0 0 1 2.357-2.357l1.274 1.274c1.697-1.23 3.66-2.102 5.438-2.54a1.666 1.666 0 1 1 .796 3.238c-1.263.31-2.629.914-3.829 1.708l2.659 2.659a1.667 1.667 0 0 1-2.357 2.357L28.13 35.46c-.36.495-.634 1.014-.788 1.546-.534 1.843-.132 3.522 1.075 4.492 1.462 1.174 3.792 1.08 6.232-.252.398-.217.794-.442 1.213-.68 1.825-1.035 3.711-2.106 5.69-2.486 2.765-.53 5.452.546 7.19 2.878 1.918 2.576 2.193 6.093.7 8.96-.234.45-.509.893-.816 1.324zm-2.14-2.863c.906-1.74.742-3.872-.418-5.43-.97-1.301-2.386-1.883-3.888-1.595-.788.151-1.639.5-2.508.934l6.552 6.552c.092-.151.18-.304.262-.461zm22.77-35.636a1.66 1.66 0 0 1-1.203-.512 9.404 9.404 0 0 0-.64-.61 1.667 1.667 0 1 1 2.189-2.514c.294.256.582.53.855.815a1.667 1.667 0 0 1-1.202 2.821zm2.22 1.339a1.666 1.666 0 0 1 2.088 1.092c.404 1.29.61 2.63.61 3.983 0 7.352-5.982 13.333-13.333 13.333-7.352 0-13.333-5.981-13.333-13.333a1.667 1.667 0 1 1 3.333 0c0 5.514 4.486 10 10 10s10-4.486 10-10c0-1.014-.155-2.02-.458-2.987a1.667 1.667 0 0 1 1.093-2.088zM38.136 74.49l38.53-38.53V10.8c0-4.117-3.35-7.468-7.468-7.468H44.041L41.355 6.02c4.095.584 7.874 1.498 11.012 2.685 3.08 1.165 5.353 2.52 6.764 4.011a6.65 6.65 0 0 1 1.71-.223 6.674 6.674 0 0 1 6.667 6.666 6.674 6.674 0 0 1-6.666 6.667c-3.095 0-5.704-2.12-6.451-4.985a.018.018 0 0 1-.002-.004l-.012-.052a6.651 6.651 0 0 1 1.744-6.327c-.996-.827-2.581-1.745-4.933-2.635-3.545-1.34-7.998-2.311-12.82-2.815L5.51 41.864a7.413 7.413 0 0 0-2.177 5.28 7.41 7.41 0 0 0 2.177 5.281L27.575 74.49a7.412 7.412 0 0 0 5.28 2.176 7.414 7.414 0 0 0 5.28-2.176zM60.83 16.322c.052 1.278-.423 3.053-2.747 4.704a3.332 3.332 0 1 0 2.759-5.201l-.06.003c.024.164.04.328.048.494z" fill="#FFF" opacity=".8"/></svg>