<?xml version="1.0" encoding="UTF-8"?>
<svg width="80px" height="80px" viewBox="0 0 80 80" version="1.1" xmlns="http://www.w3.org/2000/svg" xmlns:xlink="http://www.w3.org/1999/xlink">
    <!-- Generator: Sketch 42 (36781) - http://www.bohemiancoding.com/sketch -->
    <title>Combined Shape</title>
    <desc>Created with Sketch.</desc>
    <defs></defs>
    <g id="Page-1" stroke="none" stroke-width="1" fill="none" fill-rule="evenodd" opacity="0.800000012">
        <g id="Desktop" transform="translate(-155.000000, -436.000000)" fill-rule="nonzero" fill="#FFFFFF">
            <g id="Group" transform="translate(51.000000, 360.000000)">
                <path d="M183.999904,112.649616 C183.999904,113.091646 183.824436,113.515552 183.511623,113.828364 L144.673342,152.666569 L160.666467,152.666569 C161.586936,152.666569 162.333186,153.412818 162.333186,154.333285 C162.333186,155.253751 161.586779,156 160.666467,156 L127.333498,156 C126.413029,156 125.666779,155.253595 125.666779,154.333285 C125.666779,153.412661 126.413186,152.666569 127.333498,152.666569 L129.036936,152.666569 L107.152717,130.782237 C105.119904,128.749584 104.000217,126.037246 104.000217,123.144908 C104.000217,120.252726 105.119748,117.540231 107.152717,115.507267 L123.996623,98.663237 C116.921779,96.5799598 112.838342,93.5102783 112.697092,90.0974725 C112.658186,89.1515368 112.911154,87.7259146 114.338811,86.3079486 C117.902561,82.768893 127.388654,80.8298343 138.505217,81.3682708 C139.383654,81.4107707 140.255373,81.4688956 141.119279,81.5407704 L146.171936,76.488124 C146.484436,76.1756247 146.908186,76 147.350217,76 L173.198342,76 C179.154279,76 183.999748,80.845303 183.999592,86.8012289 L183.999904,112.649616 Z M116.027717,89.9596602 C116.083654,91.3110638 118.983654,94.0034023 126.712248,95.9477735 L137.977561,84.682483 C126.615529,84.1873278 118.985998,86.3906047 116.687873,88.672944 C116.002717,89.3534114 116.021623,89.8098168 116.027717,89.9596602 Z M140.390998,140.822217 C141.041936,140.171281 142.097248,140.171281 142.748342,140.822217 C143.399123,141.47331 143.399123,142.52862 142.748342,143.1794 L139.212717,146.715018 C138.562717,147.364861 137.708967,147.689704 136.855529,147.689704 C136.001779,147.689704 135.148342,147.364704 134.498498,146.715018 L127.427092,139.643626 C126.776311,138.992533 126.776311,137.937223 127.427248,137.286443 C128.078186,136.635819 129.133498,136.635819 129.784279,137.286599 L136.855373,144.357991 L140.390998,140.822217 Z M125.331779,132.833795 L126.013811,133.515981 C126.664592,134.16723 126.664123,135.222541 126.013186,135.873164 C125.687873,136.198476 125.261467,136.360976 124.835061,136.360976 C124.408498,136.360976 123.981623,136.198164 123.656154,135.872539 L122.974279,135.190353 C122.323654,134.539104 122.323811,133.483794 122.974748,132.83317 C123.625842,132.18239 124.681154,132.182859 125.331779,132.833795 Z M152.626936,127.242712 L154.477092,129.092709 C155.127717,129.743801 155.127717,130.798955 154.476936,131.449735 C154.151623,131.775047 153.725217,131.937859 153.298498,131.937859 C152.872248,131.937859 152.445686,131.775204 152.120217,131.449735 L150.360217,129.689583 C148.523811,131.235517 146.289436,132.285984 144.178811,132.28614 C143.585998,132.28614 143.003342,132.203171 142.441467,132.025359 C141.563967,131.747547 141.077873,130.81083 141.355842,129.933332 C141.633811,129.055678 142.570373,128.569429 143.448029,128.847553 C144.578811,129.205677 146.397717,128.589429 148.000217,127.329743 L140.630373,119.959914 C140.502092,120.031008 140.373967,120.103195 140.245998,120.173039 C136.584592,122.171004 132.877873,122.142722 130.330686,120.09757 C128.072873,118.284605 127.233967,115.21258 128.140998,112.07993 C128.458029,110.9854 129.022248,109.980715 129.748029,109.077435 L128.550217,107.879469 C127.899436,107.228377 127.899436,106.173066 128.550373,105.522442 C129.201623,104.871662 130.256779,104.871819 130.907404,105.522442 L132.180998,106.796034 C133.878342,105.565724 135.841154,104.69385 137.619123,104.25682 C138.513186,104.036664 139.415842,104.583382 139.635686,105.477286 C139.855529,106.371347 139.309123,107.274158 138.415217,107.493845 C137.151779,107.804157 135.786154,108.408374 134.586311,109.20181 L137.244748,111.860711 C137.895686,112.511804 137.895529,113.567114 137.244748,114.217738 C136.919279,114.543206 136.493029,114.705862 136.066467,114.705862 C135.639904,114.705862 135.213342,114.54305 134.887873,114.217738 L132.131154,111.460712 C131.770686,111.956024 131.497248,112.475085 131.343029,113.007115 C130.809436,114.850393 131.210998,116.529452 132.417717,117.498513 C133.880061,118.672573 136.209592,118.578511 138.649592,117.247107 C139.047717,117.029607 139.443654,116.80492 139.862717,116.567108 C141.687561,115.531642 143.574436,114.461019 145.553654,114.081488 C148.318029,113.551177 151.005373,114.626956 152.742092,116.958983 C154.660686,119.535071 154.935842,123.052408 153.443029,125.919434 C153.209279,126.368495 152.934279,126.81162 152.626936,127.242712 Z M150.486623,124.379593 C151.392873,122.639128 151.229123,120.507726 150.068967,118.949916 C149.099592,117.648512 147.683186,117.06742 146.181467,117.355232 C145.392717,117.506481 144.542092,117.8557 143.673029,118.288511 L150.225373,124.840998 C150.316623,124.689905 150.404904,124.536624 150.486623,124.379593 Z M173.256467,88.7440376 C172.818498,88.7440376 172.381623,88.5726317 172.054436,88.2318511 C171.849123,88.018414 171.633811,87.8129457 171.414279,87.6218523 C170.719904,87.0173222 170.647092,85.964668 171.251467,85.2704506 C171.855998,84.5762332 172.908654,84.5032646 173.603029,85.1077947 C173.897092,85.3635755 174.184748,85.6377937 174.458186,85.9226369 C175.095842,86.5865418 175.074592,87.6415398 174.410998,88.2791948 C174.087561,88.5896629 173.671623,88.7440376 173.256467,88.7440376 Z M175.476623,90.082785 C176.354748,89.807473 177.290061,90.2965346 177.565061,91.1749704 C177.969436,92.4651241 178.174279,93.805434 178.174279,95.1582438 C178.174279,102.509948 172.193186,108.49103 164.841623,108.49103 C157.489748,108.49103 151.508654,102.509948 151.508654,95.1582438 C151.508654,94.2376206 152.254904,93.4915283 153.175373,93.4915283 C154.095998,93.4915283 154.842092,94.2377769 154.842092,95.1582438 C154.842092,100.672139 159.327717,105.157756 164.841779,105.157756 C170.355529,105.157756 174.841154,100.672139 174.841154,95.1582438 C174.841154,94.1437146 174.687404,93.1388728 174.384436,92.1713747 C174.109279,91.2930951 174.598342,90.3579407 175.476623,90.082785 Z M142.135686,150.490011 L180.666467,111.959305 L180.666154,86.8013852 C180.666154,82.6835807 177.315998,79.333431 173.198186,79.333431 L148.040529,79.333431 L145.355373,82.0187382 C149.449904,82.6034246 153.228811,83.5171728 156.367404,84.704358 C159.446623,85.8690432 161.719592,87.2234156 163.131311,88.7149752 C163.677404,88.5698192 164.250529,88.4915381 164.841779,88.4915381 C168.517717,88.4915381 171.508186,91.4823135 171.508186,95.1584001 C171.508186,98.8344867 168.517561,101.82495 164.841779,101.82495 C161.746623,101.82495 159.137717,99.7046412 158.390686,96.8402718 C158.390061,96.8390218 158.389592,96.8376156 158.389279,96.8362093 C158.384748,96.8188656 158.380842,96.8013656 158.376623,96.7840219 C158.365842,96.7435532 158.355842,96.7029283 158.348342,96.6619909 C158.236311,96.1785543 158.175217,95.6755866 158.175217,95.1585563 C158.175217,93.3254349 158.919123,91.6632507 160.120217,90.4568468 C159.125373,89.6302859 157.539592,88.7116939 155.188186,87.8221644 C151.642717,86.4810733 147.190217,85.5109189 142.367561,85.0065449 L109.509592,117.864137 C108.106154,119.267415 107.333186,121.142724 107.333186,123.144752 C107.333186,125.146623 108.106154,127.021932 109.509592,128.425054 L131.574592,150.490011 C132.977717,151.893602 134.853029,152.666413 136.855061,152.666413 C138.856779,152.666413 140.732404,151.893446 142.135686,150.490011 Z M164.829748,92.3219994 C164.882404,93.5998094 164.406936,95.3748059 162.082717,97.0260527 C162.682873,97.9096447 163.695529,98.4913623 164.841779,98.4913623 C166.679592,98.4913623 168.174748,96.9960527 168.174748,95.1582438 C168.174748,93.3202787 166.679592,91.8248128 164.841779,91.8248128 C164.821311,91.8248128 164.801467,91.8276253 164.781154,91.8279378 C164.805842,91.9918438 164.822873,92.1563747 164.829748,92.3219994 Z" id="Combined-Shape"></path>
            </g>
        </g>
    </g>
</svg>