<svg width="80" height="80" viewBox="0 0 80 80" xmlns="http://www.w3.org/2000/svg"><title>Combined Shape</title><path d="M73.016 0A6.99 6.99 0 0 1 80 6.984V65.13L65.13 80H6.984A6.987 6.987 0 0 1 0 73.016V6.984A6.988 6.988 0 0 1 6.984 0h66.032zM62.433 5.186a3.756 3.756 0 1 0-.001 7.511 3.756 3.756 0 0 0 .001-7.511zm-11.215 0a3.756 3.756 0 1 0-.001 7.511 3.756 3.756 0 0 0 0-7.511zM40 5.186a3.756 3.756 0 1 0-.001 7.511A3.756 3.756 0 0 0 40 5.186zm-11.218 0a3.756 3.756 0 1 0 0 7.511 3.756 3.756 0 0 0 0-7.511zm-11.215 0a3.756 3.756 0 1 0-.001 7.511 3.756 3.756 0 0 0 .001-7.511zm15.19 57.143c1.006-10.794 5.58-18.66 11.113-24.465H27.314V30.09h25.928v7.226c-5.806 4.708-10.288 14.13-10.608 25.013h-9.877zM76.19 63.55V17.143H3.81v55.873a3.179 3.179 0 0 0 3.174 3.174H63.55l.79-.79v-5.98c0-2.794 2.28-5.08 5.08-5.08h5.98l.79-.79z" fill="#FFF" opacity=".8"/></svg>