<?xml version="1.0" encoding="UTF-8"?>
<svg width="80px" height="80px" viewBox="0 0 80 80" version="1.1" xmlns="http://www.w3.org/2000/svg" xmlns:xlink="http://www.w3.org/1999/xlink">
    <!-- Generator: Sketch 42 (36781) - http://www.bohemiancoding.com/sketch -->
    <title>Combined Shape</title>
    <desc>Created with Sketch.</desc>
    <defs></defs>
    <g id="Page-1" stroke="none" stroke-width="1" fill="none" fill-rule="evenodd" opacity="0.799999952">
        <g id="Desktop" transform="translate(-1022.000000, -436.000000)" fill-rule="nonzero" fill="#FFFFFF">
            <g id="Group" transform="translate(51.000000, 360.000000)">
                <path d="M1044.01587,76 C1047.87111,76 1051,79.1339683 1051,82.984127 L1051,141.130159 L1036.13016,156 L977.984127,156 C974.128889,156 971,152.871111 971,149.015873 L971,82.984127 C971,79.1314286 974.128889,76 977.984127,76 L1044.01587,76 Z M1033.43302,81.1860317 C1031.3581,81.1860317 1029.67683,82.8673016 1029.67683,84.9422222 C1029.67683,87.0171429 1031.3581,88.6984127 1033.43302,88.6984127 C1035.50794,88.6984127 1037.18921,87.0171429 1037.18921,84.9422222 C1037.18921,82.8673016 1035.50794,81.1860317 1033.43302,81.1860317 Z M1022.21778,81.1860317 C1020.14286,81.1860317 1018.46159,82.8673016 1018.46159,84.9422222 C1018.46159,87.0171429 1020.14286,88.6984127 1022.21778,88.6984127 C1024.2927,88.6984127 1025.97397,87.0171429 1025.97397,84.9422222 C1025.97397,82.8673016 1024.2927,81.1860317 1022.21778,81.1860317 Z M1011,81.1860317 C1008.92508,81.1860317 1007.24381,82.8673016 1007.24381,84.9422222 C1007.24381,87.0171429 1008.92508,88.6984127 1011,88.6984127 C1013.07492,88.6984127 1014.75619,87.0171429 1014.75619,84.9422222 C1014.75619,82.8673016 1013.07492,81.1860317 1011,81.1860317 Z M999.782222,81.1860317 C997.707302,81.1860317 996.026032,82.8673016 996.026032,84.9422222 C996.026032,87.0171429 997.707302,88.6984127 999.782222,88.6984127 C1001.85714,88.6984127 1003.53841,87.0171429 1003.53841,84.9422222 C1003.53841,82.8673016 1001.85714,81.1860317 999.782222,81.1860317 Z M988.566984,81.1860317 C986.492063,81.1860317 984.810794,82.8673016 984.810794,84.9422222 C984.810794,87.0171429 986.492063,88.6984127 988.566984,88.6984127 C990.641905,88.6984127 992.323175,87.0171429 992.323175,84.9422222 C992.323175,82.8673016 990.641905,81.1860317 988.566984,81.1860317 Z M1003.75683,138.328889 C1004.76254,127.535238 1009.33651,119.669841 1014.87048,113.864127 L998.314286,113.864127 L998.314286,106.090159 L1024.2419,106.090159 L1024.2419,113.315556 C1018.43619,118.024127 1013.95365,127.446349 1013.63365,138.328889 L1003.75683,138.328889 Z M1047.19048,139.550476 L1047.19048,93.1428571 L974.809524,93.1428571 L974.809524,149.015873 C974.809524,150.765714 976.234286,152.190476 977.984127,152.190476 L1034.55048,152.190476 L1035.34032,151.400635 L1035.34032,145.419683 C1035.34032,142.626032 1037.62095,140.340317 1040.41968,140.340317 L1046.40063,140.340317 L1047.19048,139.550476 Z" id="Combined-Shape"></path>
            </g>
        </g>
    </g>
</svg>