<?xml version="1.0" encoding="UTF-8"?>
<svg width="74px" height="80px" viewBox="0 0 74 80" version="1.1" xmlns="http://www.w3.org/2000/svg" xmlns:xlink="http://www.w3.org/1999/xlink">
    <!-- Generator: Sketch 42 (36781) - http://www.bohemiancoding.com/sketch -->
    <title>Shape</title>
    <desc>Created with Sketch.</desc>
    <defs></defs>
    <g id="Page-1" stroke="none" stroke-width="1" fill="none" fill-rule="evenodd" opacity="0.799999952">
        <g id="Desktop" transform="translate(-603.000000, -436.000000)" fill-rule="nonzero" fill="#FFFFFF">
            <g id="Group" transform="translate(51.000000, 360.000000)">
                <path d="M625.61756,94.8602786 C625.61756,94.5563529 625.550021,94.2524272 625.414943,93.9653862 C625.144787,93.3913043 624.621359,93.0029548 624.047277,92.8847615 L589.653018,76.2026171 C589.095821,75.932461 588.437315,75.932461 587.880118,76.2026171 L553.148164,93.0367244 C552.472773,93.3575348 552.03377,94.0329253 552,94.7927396 L552,94.8096243 L552,94.8771634 L552,137.122837 C552,137.899536 552.439004,138.608696 553.148164,138.946391 L587.880118,155.780498 C587.897003,155.780498 587.897003,155.780498 587.913888,155.797383 C587.964542,155.814268 588.015196,155.831152 588.065851,155.864922 C588.082735,155.864922 588.09962,155.881807 588.13339,155.881807 C588.184044,155.898691 588.234698,155.915576 588.285352,155.932461 C588.302237,155.932461 588.319122,155.949346 588.336007,155.949346 C588.386661,155.96623 588.4542,155.96623 588.504854,155.983115 L588.555509,155.983115 C588.623048,155.983115 588.707472,156 588.775011,156 C588.84255,156 588.926973,156 588.994512,155.983115 L589.045167,155.983115 C589.095821,155.983115 589.16336,155.96623 589.214014,155.949346 C589.230899,155.949346 589.247784,155.932461 589.264669,155.932461 C589.315323,155.915576 589.365977,155.898691 589.416631,155.881807 C589.433516,155.881807 589.450401,155.864922 589.484171,155.864922 C589.534825,155.848037 589.585479,155.831152 589.636133,155.797383 C589.653018,155.797383 589.653018,155.797383 589.669903,155.780498 L624.503166,138.895737 C625.195441,138.558041 625.65133,137.848881 625.65133,137.072182 L625.65133,94.9109329 C625.61756,94.8940481 625.61756,94.8771634 625.61756,94.8602786 Z M588.758126,80.2718447 L618.88054,94.8771634 L607.787252,100.263402 L577.664837,85.6580836 L588.758126,80.2718447 Z M588.758126,109.482482 L558.635711,94.8771634 L573.021528,87.9037569 L603.143943,102.509076 L588.758126,109.482482 Z M556.052343,98.1359223 L586.731954,113.011397 L586.731954,150.71507 L556.052343,135.839595 L556.052343,98.1359223 Z M590.784297,150.71507 L590.784297,113.011397 L605.186999,106.021106 L605.186999,115.881807 C605.186999,116.996201 606.098776,117.907978 607.21317,117.907978 C608.327564,117.907978 609.239341,116.996201 609.239341,115.881807 L609.239341,104.045589 L621.565217,98.0683833 L621.565217,135.772056 L590.784297,150.71507 Z" id="Shape"></path>
            </g>
        </g>
    </g>
</svg>