<svg width="34" height="28" viewBox="0 0 34 28" xmlns="http://www.w3.org/2000/svg"><title>Group 3</title><g fill="none" fill-rule="evenodd"><path d="M33.657 13.269l-3.36-2.996.677-4.129c.092-.561-.348-1.084-.996-1.182l-4.76-.72L22.953.559c-.308-.501-1.021-.7-1.611-.452L17 1.938 12.658.108c-.59-.25-1.303-.05-1.611.45L8.782 4.243l-4.76.72c-.647.098-1.088.621-.996 1.183l.677 4.128-3.36 2.996c-.457.407-.457 1.054 0 1.462l3.36 2.996-.677 4.129c-.092.56.348 1.084.996 1.182l4.76.72 2.265 3.683c.308.501 1.02.701 1.611.452L17 26.063l4.342 1.83c.172.073.354.107.534.107.437 0 .859-.204 1.077-.559l2.265-3.682 4.76-.72c.647-.099 1.088-.622.996-1.183l-.677-4.129 3.36-2.996c.457-.408.457-1.055 0-1.462z" fill="#E93E34" fill-rule="nonzero"/><path d="M12.137 16.654h-1.719v-2.72c0-.22-.009-.441-.027-.661-.018-.22-.051-.382-.1-.486a.54.54 0 0 0-.254-.266 1.028 1.028 0 0 0-.444-.08c-.14 0-.282.025-.425.078a2.017 2.017 0 0 0-.459.249v3.886H7v-5.483h1.709v.605c.28-.237.553-.423.818-.556.265-.134.559-.2.881-.2.56 0 .988.176 1.284.53.297.353.445.864.445 1.535v3.57zm4.072.147c-1.035 0-1.829-.248-2.38-.742-.552-.495-.828-1.2-.828-2.115 0-.895.257-1.61.771-2.143.515-.534 1.234-.801 2.159-.801.84 0 1.471.226 1.894.679.423.452.635 1.1.635 1.943v.615h-3.745c.016.254.07.467.161.638.091.17.212.306.361.407.147.101.318.174.513.218a2.914 2.914 0 0 0 1.226 0c.192-.044.367-.102.527-.174a3.803 3.803 0 0 0 .679-.39h.18v1.41l-.383.154a3.47 3.47 0 0 1-.476.145 4.969 4.969 0 0 1-.574.114 5.289 5.289 0 0 1-.72.042zm.566-3.594c-.01-.361-.093-.636-.251-.825-.158-.189-.4-.283-.725-.283-.332 0-.592.099-.779.297-.187.2-.29.47-.31.811h2.065zm10.733-2.036l-1.602 5.483H24.09l-.962-3.545-.967 3.545h-1.816l-1.587-5.483h1.797l.84 3.628 1.04-3.628h1.508l.982 3.628.825-3.628h1.758z" fill="#FFF"/></g></svg>