<?xml version="1.0" encoding="UTF-8"?>
<svg width="34px" height="28px" viewBox="0 0 34 28" version="1.1" xmlns="http://www.w3.org/2000/svg" xmlns:xlink="http://www.w3.org/1999/xlink">
    <!-- Generator: Sketch 42 (36781) - http://www.bohemiancoding.com/sketch -->
    <title>Group 3</title>
    <desc>Created with Sketch.</desc>
    <defs></defs>
    <g id="Page-1" stroke="none" stroke-width="1" fill="none" fill-rule="evenodd">
        <g id="Desktop" transform="translate(-773.000000, -108.000000)">
            <g id="Group-3" transform="translate(773.000000, 108.000000)">
                <path d="M33.6571047,13.268887 L30.2969139,10.2727295 L30.9740533,6.14437564 C31.066169,5.5829027 30.6255735,5.05969289 29.978002,4.96172245 L25.2182055,4.24173081 L22.95333,0.558658935 C22.645303,0.0575940914 21.9319346,-0.14185074 21.3418745,0.106929707 L16.9999289,1.93823411 L12.6583083,0.107069865 C12.0675983,-0.141990898 11.3548798,0.0578744074 11.0466904,0.558799093 L8.78181483,4.24187097 L4.02201831,4.96186261 C3.3746093,5.05969289 2.9338513,5.58304286 3.02596696,6.1445158 L3.70294396,10.2728696 L0.342753113,13.268887 C-0.114251038,13.6763263 -0.114251038,14.3231555 0.342753113,14.7307349 L3.7027815,17.7270326 L3.0258045,21.8555266 C2.9338513,22.4168594 3.37444684,22.9400692 4.02169339,23.0381798 L8.78165236,23.7585919 L11.0466904,27.4412433 C11.3547173,27.942168 12.0675983,28.1420333 12.6581458,27.8929725 L16.9997665,26.0622288 L21.3418745,27.8929725 C21.5139212,27.9655744 21.696203,27.9999131 21.8760479,27.9999131 C22.3132317,27.9999131 22.7348193,27.7961234 22.9531675,27.4412433 L25.2182055,23.7585919 L29.9781645,23.0381798 C30.625411,22.9402094 31.066169,22.4168594 30.9740533,21.8555266 L30.2969139,17.7270326 L33.6572672,14.7307349 C34.1142713,14.3231555 34.1142713,13.6764665 33.6571047,13.268887 Z" id="Shape" fill="#E93E34" fill-rule="nonzero"></path>
                <path d="M12.1367188,16.6542969 L10.4179688,16.6542969 L10.4179688,13.9345703 C10.4179688,13.713215 10.409017,13.4926769 10.3911133,13.2729492 C10.3732095,13.0532216 10.339844,12.8912766 10.2910156,12.7871094 C10.2324216,12.6634108 10.147787,12.5747073 10.0371094,12.5209961 C9.92643174,12.4672849 9.77832124,12.4404297 9.59277344,12.4404297 C9.45279878,12.4404297 9.31119863,12.4664711 9.16796875,12.5185547 C9.02473887,12.5706383 8.87174561,12.6536453 8.70898438,12.7675781 L8.70898438,16.6542969 L7,16.6542969 L7,11.1708984 L8.70898438,11.1708984 L8.70898438,11.7763672 C8.98893369,11.5387358 9.26155466,11.3531908 9.52685547,11.2197266 C9.79215627,11.0862624 10.0859359,11.0195312 10.4082031,11.0195312 C10.9681018,11.0195312 11.3961574,11.1961245 11.6923828,11.5493164 C11.9886083,11.9025083 12.1367188,12.4143847 12.1367188,13.0849609 L12.1367188,16.6542969 Z M16.2089844,16.8007812 C15.1738229,16.8007812 14.3803739,16.5533879 13.8286133,16.0585938 C13.2768527,15.5637996 13.0009766,14.8590541 13.0009766,13.9443359 C13.0009766,13.0491492 13.2581354,12.3346381 13.7724609,11.8007812 C14.2867864,11.2669244 15.0061803,11 15.9306641,11 C16.770512,11 17.4020161,11.2262347 17.8251953,11.6787109 C18.2483745,12.1311872 18.4599609,12.7789671 18.4599609,13.6220703 L18.4599609,14.2373047 L14.7148438,14.2373047 C14.7311199,14.4912122 14.7848303,14.7036124 14.8759766,14.8745117 C14.9671229,15.045411 15.0875644,15.1813146 15.2373047,15.2822266 C15.3837898,15.3831385 15.5546865,15.4555662 15.75,15.4995117 C15.9453135,15.5434573 16.1585275,15.5654297 16.3896484,15.5654297 C16.5882171,15.5654297 16.7835277,15.5434573 16.9755859,15.4995117 C17.1676442,15.4555662 17.3434237,15.3977868 17.5029297,15.3261719 C17.6429043,15.2643226 17.7722976,15.1975915 17.8911133,15.1259766 C18.009929,15.0543616 18.1067705,14.9908857 18.1816406,14.9355469 L18.3623047,14.9355469 L18.3623047,16.3466797 C18.22233,16.4020185 18.0945644,16.4532875 17.9790039,16.5004883 C17.8634434,16.547689 17.7047536,16.5957029 17.5029297,16.6445312 C17.3173819,16.6933596 17.1261403,16.7316079 16.9291992,16.7592773 C16.7322581,16.7869468 16.4921889,16.8007812 16.2089844,16.8007812 Z M16.7753906,13.2070312 C16.765625,12.8457013 16.6818042,12.570639 16.5239258,12.3818359 C16.3660474,12.1930329 16.1243506,12.0986328 15.7988281,12.0986328 C15.4667952,12.0986328 15.2071949,12.1979157 15.0200195,12.3964844 C14.8328441,12.5950531 14.7294923,12.8652327 14.7099609,13.2070312 L16.7753906,13.2070312 Z M27.5078125,11.1708984 L25.90625,16.6542969 L24.0898438,16.6542969 L23.1279297,13.109375 L22.1611328,16.6542969 L20.3447266,16.6542969 L18.7578125,11.1708984 L20.5546875,11.1708984 L21.3945312,14.7988281 L22.4345703,11.1708984 L23.9433594,11.1708984 L24.9248047,14.7988281 L25.75,11.1708984 L27.5078125,11.1708984 Z" id="new" fill="#FFFFFF"></path>
            </g>
        </g>
    </g>
</svg>